<svg width="20" height="21" viewBox="0 0 20 21" fill="none" xmlns="http://www.w3.org/2000/svg">
<path d="M15 6.9982C16.3807 6.9982 17.5 5.87891 17.5 4.4982C17.5 3.11749 16.3807 1.9982 15 1.9982C13.6193 1.9982 12.5 3.11749 12.5 4.4982C12.5 5.87891 13.6193 6.9982 15 6.9982Z" stroke="#DA1F27" stroke-width="1.5" stroke-linecap="round" stroke-linejoin="round"/>
<path d="M5 12.8315C6.38071 12.8315 7.5 11.7123 7.5 10.3315C7.5 8.95083 6.38071 7.83154 5 7.83154C3.61929 7.83154 2.5 8.95083 2.5 10.3315C2.5 11.7123 3.61929 12.8315 5 12.8315Z" stroke="#DA1F27" stroke-width="1.5" stroke-linecap="round" stroke-linejoin="round"/>
<path d="M15 18.6649C16.3807 18.6649 17.5 17.5456 17.5 16.1649C17.5 14.7842 16.3807 13.6649 15 13.6649C13.6193 13.6649 12.5 14.7842 12.5 16.1649C12.5 17.5456 13.6193 18.6649 15 18.6649Z" stroke="#DA1F27" stroke-width="1.5" stroke-linecap="round" stroke-linejoin="round"/>
<path d="M7.15833 11.5899L12.85 14.9065" stroke="#DA1F27" stroke-width="1.5" stroke-linecap="round" stroke-linejoin="round"/>
<path d="M12.8417 5.75653L7.15833 9.0732" stroke="#DA1F27" stroke-width="1.5" stroke-linecap="round" stroke-linejoin="round"/>
</svg>
